<?xml version="1.0" standalone="no"?><!DOCTYPE svg PUBLIC "-//W3C//DTD SVG 1.1//EN" "http://www.w3.org/Graphics/SVG/1.1/DTD/svg11.dtd"><svg t="1743234450361" class="icon" viewBox="0 0 1024 1024" version="1.1" xmlns="http://www.w3.org/2000/svg" p-id="8609" xmlns:xlink="http://www.w3.org/1999/xlink" width="200" height="200"><path d="M92.16 860.16c-24.203636 0-43.752727-19.549091-43.752727-43.752727V175.941818c0-6.516364 5.585455-12.101818 12.101818-12.101818H567.854545c6.516364 0 12.101818 5.585455 12.101819 12.101818v595.781818" fill="#FFFFFF" p-id="8610"></path><path d="M92.16 869.469091c-29.789091 0-53.992727-24.203636-53.992727-53.992727V175.941818c0-11.170909 9.309091-21.410909 21.410909-21.410909h507.345454c11.170909 0 21.410909 9.309091 21.410909 21.410909v595.781818h-18.618181v-595.781818c0-0.930909-0.930909-2.792727-2.792728-2.792727H59.578182c-0.930909 0-2.792727 0.930909-2.792727 2.792727v639.534546c0 19.549091 15.825455 35.374545 35.374545 35.374545v18.618182z" fill="#CCCCCC" p-id="8611"></path><path d="M92.16 860.16c24.203636 0 44.683636-19.549091 44.683636-43.752727v-44.683637h501.76c0 48.407273-40.029091 88.436364-88.436363 88.436364H92.16z" fill="#F2F2F2" p-id="8612"></path><path d="M549.236364 869.469091H92.16v-18.618182c19.549091 0 35.374545-15.825455 35.374545-35.374545v-53.992728h520.378182v9.309091c-0.930909 54.923636-44.683636 98.676364-98.676363 98.676364z m-417.047273-18.618182H549.236364c40.029091 0 73.541818-30.72 78.196363-69.818182H145.221818v35.374546c0 13.032727-4.654545 25.134545-13.032727 34.443636z" fill="#CCCCCC" p-id="8613"></path><path d="M113.570909 239.243636h401.221818v85.643637H113.570909z" fill="#F2F2F2" p-id="8614"></path><path d="M418.909091 400.290909H121.018182c-5.585455 0-9.309091-3.723636-9.309091-9.309091s3.723636-9.309091 9.309091-9.309091h297.890909c5.585455 0 9.309091 3.723636 9.309091 9.309091s-3.723636 9.309091-9.309091 9.309091zM353.745455 474.763636H121.018182c-5.585455 0-9.309091-3.723636-9.309091-9.309091s3.723636-9.309091 9.309091-9.30909h232.727273c5.585455 0 9.309091 3.723636 9.30909 9.30909s-3.723636 9.309091-9.30909 9.309091zM288.581818 549.236364H121.018182c-5.585455 0-9.309091-3.723636-9.309091-9.309091s3.723636-9.309091 9.309091-9.309091h167.563636c5.585455 0 9.309091 3.723636 9.309091 9.309091s-3.723636 9.309091-9.309091 9.309091zM335.127273 623.709091H121.018182c-5.585455 0-9.309091-3.723636-9.309091-9.309091s3.723636-9.309091 9.309091-9.309091h214.109091c5.585455 0 9.309091 3.723636 9.309091 9.309091s-3.723636 9.309091-9.309091 9.309091z" fill="#CCCCCC" p-id="8615"></path><path d="M567.854545 553.890909m-154.530909 0a154.530909 154.530909 0 1 0 309.061819 0 154.530909 154.530909 0 1 0-309.061819 0Z" fill="#FFFFFF" p-id="8616"></path><path d="M496.174545 636.741818c-2.792727 0-4.654545-0.930909-6.516363-2.792727-44.683636-42.821818-45.614545-114.501818-2.792727-158.254546 3.723636-3.723636 9.309091-3.723636 13.032727 0 3.723636 3.723636 3.723636 9.309091 0 13.032728-36.305455 37.236364-34.443636 95.883636 1.861818 132.189091 3.723636 3.723636 3.723636 9.309091 0 13.032727-0.930909 1.861818-2.792727 2.792727-5.585455 2.792727z" fill="#CCCCCC" p-id="8617"></path><path d="M846.196364 815.476364L745.658182 714.938182c-4.654545-4.654545-12.101818-6.516364-17.687273-4.654546l-41.890909-41.890909c28.858182-29.789091 46.545455-69.818182 46.545455-113.570909 0-90.298182-73.541818-163.84-163.84-163.84-90.298182 0-163.84 73.541818-163.84 163.84 0 90.298182 73.541818 163.84 163.84 163.84 39.098182 0 76.334545-13.963636 104.261818-37.236363l42.821818 42.821818c-1.861818 6.516364 0 13.032727 4.654545 17.687272l100.538182 100.538182c3.723636 3.723636 8.378182 5.585455 13.032727 5.585455s9.309091-1.861818 13.032728-5.585455c6.516364-8.378182 6.516364-19.549091-0.930909-26.996363zM422.632727 553.890909c0-80.058182 65.163636-145.221818 145.221818-145.221818s145.221818 65.163636 145.221819 145.221818-65.163636 145.221818-145.221819 145.221818-145.221818-65.163636-145.221818-145.221818z" fill="#CCCCCC" p-id="8618"></path><path d="M964.421818 367.709091H817.338182l-67.025455 45.614545 2.792728-45.614545h-48.407273c-16.756364 0-29.789091-13.032727-29.789091-29.789091v-69.818182c0-16.756364 13.032727-29.789091 29.789091-29.789091h258.792727c16.756364 0 29.789091 13.032727 29.789091 29.789091v69.818182c0.930909 16.756364-12.101818 29.789091-28.858182 29.789091z" fill="#F2F2F2" p-id="8619"></path><path d="M740.072727 431.941818l3.723637-54.923636h-38.167273c-21.410909 0-39.098182-17.687273-39.098182-39.098182v-69.818182c0-21.410909 17.687273-39.098182 39.098182-39.098182h258.792727c21.410909 0 39.098182 17.687273 39.098182 39.098182v69.818182c0 21.410909-17.687273 39.098182-39.098182 39.098182H820.130909l-80.058182 54.923636z m-34.443636-183.389091c-11.170909 0-20.48 9.309091-20.48 20.48v69.818182c0 11.170909 9.309091 20.48 20.48 20.48h58.647273l-2.792728 36.305455 53.061819-36.305455h149.876363c11.170909 0 20.48-9.309091 20.48-20.48v-69.818182c0-11.170909-9.309091-20.48-20.48-20.48H705.629091z" fill="#CCCCCC" p-id="8620"></path><path d="M754.036364 308.130909m-16.756364 0a16.756364 16.756364 0 1 0 33.512727 0 16.756364 16.756364 0 1 0-33.512727 0Z" fill="#CCCCCC" p-id="8621"></path><path d="M837.818182 308.130909m-16.756364 0a16.756364 16.756364 0 1 0 33.512727 0 16.756364 16.756364 0 1 0-33.512727 0Z" fill="#CCCCCC" p-id="8622"></path><path d="M921.6 308.130909m-16.756364 0a16.756364 16.756364 0 1 0 33.512728 0 16.756364 16.756364 0 1 0-33.512728 0Z" fill="#CCCCCC" p-id="8623"></path></svg>