<?xml version="1.0" standalone="no"?><!DOCTYPE svg PUBLIC "-//W3C//DTD SVG 1.1//EN" "http://www.w3.org/Graphics/SVG/1.1/DTD/svg11.dtd"><svg t="1736402031885" class="icon" viewBox="0 0 1347 1024" version="1.1" xmlns="http://www.w3.org/2000/svg" p-id="2724" xmlns:xlink="http://www.w3.org/1999/xlink" width="263.0859375" height="200"><path d="M105.025641 17.504274h1137.777778c48.136752 0 87.521368 39.384615 87.521367 87.521367v700.17094c0 48.136752-39.384615 87.521368-87.521367 87.521368H105.025641c-48.136752 0-87.521368-39.384615-87.521367-87.521368V105.025641C17.504274 56.888889 56.888889 17.504274 105.025641 17.504274z" fill="#FFFFFF" p-id="2725"></path><path d="M1242.803419 910.222222H105.025641c-57.764103 0-105.025641-47.261538-105.025641-105.025641V105.025641C0 47.261538 47.261538 0 105.025641 0h1137.777778c57.764103 0 105.025641 47.261538 105.025641 105.025641v700.17094c0 57.764103-47.261538 105.025641-105.025641 105.025641zM105.025641 35.008547c-38.509402 0-70.017094 31.507692-70.017094 70.017094v700.17094c0 38.509402 31.507692 70.017094 70.017094 70.017094h1137.777778c38.509402 0 70.017094-31.507692 70.017094-70.017094V105.025641c0-38.509402-31.507692-70.017094-70.017094-70.017094H105.025641z" fill="#A8A8A8" p-id="2726"></path><path d="M122.529915 96.273504h1102.76923c14.878632 0 26.25641 11.377778 26.256411 26.256411v665.162393c0 14.878632-11.377778 26.25641-26.256411 26.25641H122.529915c-14.878632 0-26.25641-11.377778-26.256411-26.25641V122.529915c0-14.878632 11.377778-26.25641 26.256411-26.256411z" fill="#A8A8A8" opacity=".08" p-id="2727"></path><path d="M1225.299145 829.702564H122.529915c-22.755556 0-42.010256-19.254701-42.010257-42.010256V122.529915c0-22.755556 19.254701-42.010256 42.010257-42.010257h1102.76923c22.755556 0 42.010256 19.254701 42.010257 42.010257v665.162393c0 22.755556-19.254701 42.010256-42.010257 42.010256z m-1102.76923-717.675214c-6.126496 0-10.502564 4.376068-10.502565 10.502565v665.162393c0 6.126496 4.376068 10.502564 10.502565 10.502564h1102.76923c6.126496 0 10.502564-4.376068 10.502564-10.502564V122.529915c0-6.126496-4.376068-10.502564-10.502564-10.502565H122.529915zM472.615385 980.239316h402.59829c9.62735 0 17.504274 7.876923 17.504274 17.504274s-7.876923 17.504274-17.504274 17.504273H472.615385c-9.62735 0-17.504274-7.876923-17.504274-17.504273s7.876923-17.504274 17.504274-17.504274z" fill="#A8A8A8" p-id="2728"></path><path d="M726.42735 381.593162c-4.376068-4.376068-4.376068-11.377778 0-15.753846s11.377778-4.376068 15.753847 0l81.394871 81.394872c4.376068 4.376068 4.376068 11.377778 0 15.753846l-81.394871 81.394872c-4.376068 4.376068-11.377778 4.376068-15.753847 0s-4.376068-11.377778 0-15.753846l71.767522-71.767522 0.875213-0.875213V455.111111v-0.875214s0-0.875214-0.875213-0.875213L726.42735 381.593162z m-177.668376 75.268376l71.767522 71.767522c4.376068 4.376068 4.376068 11.377778 0 15.753846s-11.377778 4.376068-15.753846 0l-81.394872-81.394872c-4.376068-4.376068-4.376068-11.377778 0-15.753846l81.394872-81.394872c4.376068-4.376068 11.377778-4.376068 15.753846 0s4.376068 11.377778 0 15.753846l-71.767522 71.767522-0.875213 0.875213v1.750428l0.875213 0.875213z m148.786325-103.275213c6.126496 1.750427 9.62735 7.001709 7.876923 13.128205l-42.010256 182.044444c-1.750427 6.126496-7.001709 9.62735-13.128205 7.876923-6.126496-1.750427-9.62735-7.001709-7.876923-13.128205l42.010256-182.044444c0.875214-5.251282 7.001709-8.752137 13.128205-7.876923z" fill="#A8A8A8" p-id="2729"></path></svg>